<svg id="Capa_1" data-name="Capa 1" xmlns="http://www.w3.org/2000/svg" viewBox="0 0 90.32 112.9"><defs><style>.cls-1{fill:#ef3340;}</style></defs><path class="cls-1" d="M109.75,106.7c-4.64,6.83-9.47,13.67-17,13.86S82.91,116,74.44,116s-11.16,4.33-18.19,4.64c-7.27.26-12.86-7.46-17.5-14.29-9.53-14-16.81-39.58-7-56.89a27,27,0,0,1,23-14.11c7.15-.19,13.93,4.89,18.32,4.89s12.6-6.08,21.2-5.21c3.63.19,13.79,1.51,20.32,11.23a25.22,25.22,0,0,0-12,21.45A24.7,24.7,0,0,0,117.4,90.58,61.79,61.79,0,0,1,109.75,106.7ZM78,16.32A24.62,24.62,0,0,1,94.32,7.79a25.07,25.07,0,0,1-5.77,18c-3.89,4.83-10.22,8.53-16.43,8A23.79,23.79,0,0,1,78,16.32Z" transform="translate(-27.08 -7.79)"/></svg>