<svg id="Capa_1" data-name="Capa 1" xmlns="http://www.w3.org/2000/svg" viewBox="0 0 313.19 57.38"><defs><style>.cls-1{fill:#f93e4b;}.cls-2{fill:#fff;fill-rule:evenodd;}.cls-3{fill:#31374c;}</style></defs><path class="cls-1" d="M52.18,70.29H17.75A11.56,11.56,0,0,1,6.28,58.81V24.38A11.55,11.55,0,0,1,17.75,12.91H52.18A11.56,11.56,0,0,1,63.66,24.38V58.81A11.56,11.56,0,0,1,52.18,70.29Z" transform="translate(-6.28 -12.91)"/><path class="cls-2" d="M50.75,35.32c-.54,3.77-2.51,6.64-9.15,9l7.71,11.47H40.7l-6.63-10.4h-4.3l-2.51,10.4H19.55l6.81-28.15H41.24C49,27.61,51.1,31.91,50.75,35.32ZM32.46,31.91h5.73c3.23,0,4.31,1.8,4,3.95-.36,3.23-2.51,3.94-6.28,3.94H30.12Z" transform="translate(-6.28 -12.91)"/><path class="cls-1" d="M272.87,33.68V52.12H268.4V38.88L259,52.12h-4.23L251,38.88l-6.35,13.24h-4.95L248.86,33c.71-1.19,1.18-1.89,2.59-1.89.94,0,1.65.47,2.12,1.89l4,14.42,10.36-14.9c.94-1.18,1.64-1.65,2.58-1.65C271.93,31.31,272.87,32,272.87,33.68Zm-39.54.94-4.24,17.74h4.71l4-17.74Zm57.43,11.12-1.65-6.39-4.24,6.39Zm.7,3.07h-8.24l-2.35,3.55H276.4l11.06-17a2.63,2.63,0,0,1,2.35-1.42c1.18-.23,2.36.24,2.83,2.13l4.23,16.08H292.4Zm19.53.24c-3.76,0-5.88-2.37-5.64-5.21.47-3.78,3.76-6.14,8.47-6.14a34.72,34.72,0,0,1,4.71.47l.94-3.55a31.91,31.91,0,0,0-4.94-.71c-8,0-13.18,3.79-13.66,9.7-.47,5.2,2.83,8.75,10.36,8.75a39.09,39.09,0,0,0,4.71-.48l.94-3.78A16.19,16.19,0,0,1,311,49.05Zm-85.66-9.46c.23-2.37-.94-5-5.65-5H210.5l-4,17.5h4.71l1.64-6.62h2.36l4.23,6.62h5.18L219.91,45C223.92,44.08,225.09,42,225.33,39.59Zm-4.48.23c-.23,1.66-1.88,2.84-4,2.84h-3.29l1.18-5.2h3.53C219.91,37.22,221.09,38.17,220.85,39.82Z" transform="translate(-6.28 -12.91)"/><path class="cls-3" d="M148.17,45.81l-8.89-8.89-1.4-1.4a1.21,1.21,0,0,0-.94-.47c-.46,0-1.17.47-1.17.93l-4,15.91h3.74l2.57-10.76,10.53,10.53c.23.23.47.23.93.23s1.17-.47,1.17-.94l3.74-15.9h-4Z" transform="translate(-6.28 -12.91)"/><path class="cls-3" d="M104.9,35.05a3.25,3.25,0,0,0-2.34,1.17L93.67,48.15,90.4,36.92a2.53,2.53,0,0,0-2.57-1.87,2.57,2.57,0,0,0-2.34,1.4L78,51.89h4.21l5.62-11.23L91.1,51.89h4.44L104,40.66V51.89h3.75V37.62A2.66,2.66,0,0,0,104.9,35.05Z" transform="translate(-6.28 -12.91)"/><path class="cls-3" d="M125.72,43.24c-.24.7-.47,1.4-.71,2.33a3.68,3.68,0,0,1-.93,1.64,10.1,10.1,0,0,1-1.64,1.17,7.27,7.27,0,0,1-2.57.47,7.74,7.74,0,0,1-2.81-.47,1.8,1.8,0,0,1-.93-.93,3.41,3.41,0,0,1-.24-1.64c0-.7.24-1.41.24-2.34L118,34.81h-3.74l-1.88,8.43a8.67,8.67,0,0,0,.24,6.08c.93,1.63,3.27,2.57,6.55,2.57a9.55,9.55,0,0,0,7-2.57,13.84,13.84,0,0,0,3-5.85l1.88-8.66h-3.75Z" transform="translate(-6.28 -12.91)"/><path class="cls-3" d="M198.46,40.43a7.9,7.9,0,0,0-1.41-2.81,6,6,0,0,0-2.8-1.87,10.05,10.05,0,0,0-4-.7,14.59,14.59,0,0,0-4.44.7,12.34,12.34,0,0,0-3.51,1.87,9.86,9.86,0,0,0-2.57,2.81,8.13,8.13,0,0,0-1.41,3.27,7.86,7.86,0,0,0,0,3.28,6.36,6.36,0,0,0,1.41,2.8,5.93,5.93,0,0,0,2.8,1.88,10.23,10.23,0,0,0,4,.7,14.9,14.9,0,0,0,4.44-.7,12.23,12.23,0,0,0,3.51-1.88,9.81,9.81,0,0,0,2.57-2.8,8.23,8.23,0,0,0,1.41-3.28A7.75,7.75,0,0,0,198.46,40.43Zm-3.75,3a8,8,0,0,1-1.4,2.81,6.73,6.73,0,0,1-2.57,1.87,9.85,9.85,0,0,1-3.74.7,6.27,6.27,0,0,1-3.28-.7,4.23,4.23,0,0,1-1.64-1.87,4.89,4.89,0,0,1,0-2.58,8,8,0,0,1,1.41-2.8A6.46,6.46,0,0,1,186.06,39a9.66,9.66,0,0,1,3.74-.71,6.17,6.17,0,0,1,3.28.71,4,4,0,0,1,1.63,1.87A4.66,4.66,0,0,1,194.71,43.47Z" transform="translate(-6.28 -12.91)"/><path class="cls-3" d="M171.79,36a11.26,11.26,0,0,0-5.14-.93h-7.72l-3.74,16.84h7.95a14,14,0,0,0,5.61-.94,10.15,10.15,0,0,0,4-2.8,7.88,7.88,0,0,0,2.1-4.45A6.31,6.31,0,0,0,174.6,39,5.13,5.13,0,0,0,171.79,36Zm-.7,7.49a6.09,6.09,0,0,1-1.4,3,8.41,8.41,0,0,1-2.34,1.64,18.48,18.48,0,0,1-3.74.46h-4l2.34-10h4.21a13.93,13.93,0,0,1,3.51.47,3.3,3.3,0,0,1,1.64,1.4A4.79,4.79,0,0,1,171.09,43.47Z" transform="translate(-6.28 -12.91)"/></svg>