<svg id="Capa_1" data-name="Capa 1" xmlns="http://www.w3.org/2000/svg" viewBox="0 0 82.05 93.78"><defs><style>.cls-1{fill:#ef3340;}</style></defs><path class="cls-1" d="M38.49,110.31v-81a7.13,7.13,0,0,1,3.9-6.41L87.94,69.83,42.39,116.72a7.17,7.17,0,0,1-2.85-2.64A7.27,7.27,0,0,1,38.49,110.31Zm63.87-25.63L52.6,114.27,91.84,73.84Zm15.49-20.53a7.31,7.31,0,0,1,2.7,5.64,7.41,7.41,0,0,1-.69,3.14,7.22,7.22,0,0,1-2,2.52l-10.57,6.31L95.79,69.83,107.33,57.9ZM52.6,25.39,102.36,55,91.84,65.76Z" transform="translate(-38.49 -22.94)"/></svg>