<svg id="Capa_1" data-name="Capa 1" xmlns="http://www.w3.org/2000/svg" viewBox="0 0 267.7 50.99"><defs><style>.cls-1{fill:#f93e4b;}</style></defs><path class="cls-1" d="M201.32,24.63V68.34h-10.6V37l-22.3,31.38h-10L149.45,37l-15,31.38H122.68L144.43,23c1.68-2.8,2.79-4.48,6.14-4.48,2.23,0,3.9,1.12,5,4.48l9.48,34.18,24.54-35.3c2.23-2.8,3.9-3.92,6.13-3.92C199.09,19,201.32,20.71,201.32,24.63Zm-93.69,2.24-10,42h11.15l9.48-42ZM243.71,53.21,239.8,38.08l-10,15.13Zm1.67,7.28H225.86l-5.58,8.41h-10.6L235.9,28.55a6.2,6.2,0,0,1,5.58-3.36c2.78-.56,5.57.56,6.69,5l10,38.1h-10.6Zm46.29.56c-8.93,0-13.94-5.6-13.39-12.32,1.12-9,8.93-14.57,20.08-14.57a83.31,83.31,0,0,1,11.15,1.12l2.24-8.41c-2.79-.56-8.37-1.68-11.72-1.68-19,0-31.23,9-32.34,23-1.12,12.32,6.69,20.73,24.53,20.73a93.46,93.46,0,0,0,11.16-1.12l2.23-9A38.34,38.34,0,0,1,291.67,61.05Zm-203-22.41c.56-5.6-2.23-11.77-13.38-11.77H53.53L44.05,68.34H55.2l3.9-15.69h5.58l10,15.69H87L75.83,51.53C85.32,49.29,88.11,44.24,88.66,38.64Zm-10.6.56c-.55,3.92-4.46,6.72-9.48,6.72h-7.8L63.57,33.6h8.36C75.83,33,78.63,35.28,78.06,39.2Z" transform="translate(-44.05 -17.91)"/></svg>